<svg xmlns="http://www.w3.org/2000/svg" viewBox="0 12.800000190734863 250.10000610351562 45.70000076293945" data-asc="0.968" width="250.10000610351562" height="45.70000076293945"><defs/><g><g><g transform="translate(0, 0)"><path d="M18.95 49Q14.90 49 11.43 47.67Q7.95 46.35 5.40 43.90Q2.85 41.45 1.42 38.15Q0 34.85 0 30.90Q0 26.95 1.42 23.65Q2.85 20.35 5.42 17.90Q8 15.45 11.45 14.13Q14.90 12.80 19.00 12.80Q23.55 12.80 27.23 14.38Q30.90 15.95 33.40 19.00L28.20 23.80Q26.40 21.75 24.20 20.72Q22.00 19.70 19.40 19.70Q16.95 19.70 14.90 20.50Q12.85 21.30 11.35 22.80Q9.85 24.30 9.03 26.35Q8.20 28.40 8.20 30.90Q8.20 33.40 9.03 35.45Q9.85 37.50 11.35 39Q12.85 40.50 14.90 41.30Q16.95 42.10 19.40 42.10Q22.00 42.10 24.20 41.07Q26.40 40.05 28.20 37.95L33.40 42.75Q30.90 45.80 27.23 47.40Q23.55 49 18.95 49ZM51.10 48.80Q46.80 48.80 43.47 47Q40.15 45.20 38.22 42.07Q36.30 38.95 36.30 34.95Q36.30 30.90 38.22 27.77Q40.15 24.65 43.47 22.87Q46.80 21.10 51.10 21.10Q55.35 21.10 58.70 22.87Q62.05 24.65 63.95 27.75Q65.85 30.85 65.85 34.95Q65.85 38.95 63.95 42.07Q62.05 45.20 58.70 47Q55.35 48.80 51.10 48.80M51.10 42.40Q53.05 42.40 54.60 41.50Q56.15 40.60 57.05 38.92Q57.95 37.25 57.95 34.95Q57.95 32.60 57.05 30.95Q56.15 29.30 54.60 28.40Q53.05 27.50 51.10 27.50Q49.15 27.50 47.60 28.40Q46.05 29.30 45.13 30.95Q44.20 32.60 44.20 34.95Q44.20 37.25 45.13 38.92Q46.05 40.60 47.60 41.50Q49.15 42.40 51.10 42.40ZM105.50 21.10Q108.70 21.10 111.17 22.37Q113.65 23.65 115.07 26.27Q116.50 28.90 116.50 33L116.50 48.40L108.70 48.40L108.70 34.20Q108.70 30.95 107.35 29.40Q106 27.85 103.55 27.85Q101.85 27.85 100.50 28.62Q99.15 29.40 98.40 30.95Q97.65 32.50 97.65 34.90L97.65 48.40L89.85 48.40L89.85 34.20Q89.85 30.95 88.52 29.40Q87.20 27.85 84.75 27.85Q83.05 27.85 81.70 28.62Q80.35 29.40 79.60 30.95Q78.85 32.50 78.85 34.90L78.85 48.40L71.05 48.40L71.05 21.50L78.50 21.50L78.50 28.85L77.10 26.70Q78.50 23.95 81.07 22.52Q83.65 21.10 86.95 21.10Q90.65 21.10 93.42 22.97Q96.20 24.85 97.10 28.70L94.35 27.95Q95.70 24.80 98.67 22.95Q101.65 21.10 105.50 21.10ZM139.40 48.80Q136 48.80 133.45 47.30Q130.90 45.80 129.47 42.72Q128.05 39.65 128.05 34.95Q128.05 30.20 129.40 27.15Q130.75 24.10 133.30 22.60Q135.85 21.10 139.40 21.10Q143.20 21.10 146.22 22.82Q149.25 24.55 151.02 27.65Q152.80 30.75 152.80 34.95Q152.80 39.20 151.02 42.30Q149.25 45.40 146.22 47.10Q143.20 48.80 139.40 48.80M123.50 58.10L123.50 21.50L130.95 21.50L130.95 27.00L130.80 35L131.30 42.95L131.30 58.10L123.50 58.10M138.05 42.40Q140 42.40 141.52 41.50Q143.05 40.60 143.97 38.92Q144.90 37.25 144.90 34.95Q144.90 32.60 143.97 30.95Q143.05 29.30 141.52 28.40Q140 27.50 138.05 27.50Q136.10 27.50 134.55 28.40Q133 29.30 132.10 30.95Q131.20 32.60 131.20 34.95Q131.20 37.25 132.10 38.92Q133 40.60 134.55 41.50Q136.10 42.40 138.05 42.40ZM174.50 48.40L174.50 43.15L174.00 42L174.00 32.60Q174.00 30.10 172.47 28.70Q170.95 27.30 167.80 27.30Q165.65 27.30 163.57 27.97Q161.50 28.65 160.05 29.80L157.25 24.35Q159.45 22.80 162.55 21.95Q165.65 21.10 168.85 21.10Q175.00 21.10 178.40 24.00Q181.80 26.90 181.80 33.05L181.80 48.40L174.50 48.40M166.30 48.80Q163.15 48.80 160.90 47.73Q158.65 46.65 157.45 44.80Q156.25 42.95 156.25 40.65Q156.25 38.25 157.42 36.45Q158.60 34.65 161.15 33.63Q163.70 32.60 167.80 32.60L174.95 32.60L174.95 37.15L168.65 37.15Q165.90 37.15 164.87 38.05Q163.85 38.95 163.85 40.30Q163.85 41.80 165.02 42.67Q166.20 43.55 168.25 43.55Q170.20 43.55 171.75 42.63Q173.30 41.70 174.00 39.90L175.20 43.50Q174.35 46.10 172.10 47.45Q169.85 48.80 166.30 48.80ZM205.20 21.10Q208.40 21.10 210.92 22.37Q213.45 23.65 214.90 26.27Q216.35 28.90 216.35 33L216.35 48.40L208.55 48.40L208.55 34.20Q208.55 30.95 207.12 29.40Q205.70 27.85 203.10 27.85Q201.25 27.85 199.77 28.62Q198.30 29.40 197.47 31.00Q196.65 32.60 196.65 35.10L196.65 48.40L188.85 48.40L188.85 21.50L196.30 21.50L196.30 28.95L194.90 26.70Q196.35 24.00 199.05 22.55Q201.75 21.10 205.20 21.10ZM226.80 58.50Q224.70 58.50 222.65 57.85Q220.60 57.20 219.30 56.05L222.15 50.50Q223.05 51.30 224.22 51.75Q225.40 52.20 226.55 52.20Q228.20 52.20 229.17 51.42Q230.15 50.65 230.95 48.85L232.35 45.55L232.95 44.70L242.60 21.50L250.10 21.50L237.95 50.05Q236.65 53.30 234.97 55.15Q233.30 57 231.27 57.75Q229.25 58.50 226.80 58.50M231.40 49.45L219.40 21.50L227.45 21.50L236.75 44L231.40 49.45Z" style="fill:#009add;fill-opacity:1;fill-rule:nonzero;stroke:none;stroke-width:1.33333325"/></g></g></g></svg>
